<svg id="Layer_1" data-name="Layer 1" xmlns="http://www.w3.org/2000/svg" viewBox="0 0 168 48"><path d="M87.85,42.24A.86.86,0,0,1,87,41l3.11-7.59a.84.84,0,0,0,.07-.35.8.8,0,0,0-.07-.34L83.38,15.42a.9.9,0,0,1,.09-.81.87.87,0,0,1,.72-.38h4.55a.88.88,0,0,1,.83.59l3.74,10.9,3.58-10.89a.87.87,0,0,1,.83-.6h4.52a.85.85,0,0,1,.72.38.82.82,0,0,1,.1.8L93.21,41.68a.88.88,0,0,1-.81.56H87.85Z" fill="#93278f"/><path d="M30.82,34.62a10.56,10.56,0,0,1-10.55-11,10.62,10.62,0,0,1,10-10.13l.57,0a10.39,10.39,0,0,1,4.68,1.1l.16.08v-8a.87.87,0,0,1,.88-.87h4a.88.88,0,0,1,.88.87V24.43A10.53,10.53,0,0,1,30.82,34.62Zm0-15.77A5.22,5.22,0,1,0,36,24.07,5.22,5.22,0,0,0,30.82,18.85Z" fill="#93278f"/><path d="M129,33.87a.87.87,0,0,1-.87-.88V23a8.81,8.81,0,0,1,8.8-8.8h1.13a.87.87,0,0,1,.87.88V19a.87.87,0,0,1-.87.88h-.92a3.3,3.3,0,0,0-3.3,3.29V33a.88.88,0,0,1-.87.88h-4Z" fill="#93278f"/><path d="M142.6,33.87a.87.87,0,0,1-.87-.88V15.1a.87.87,0,0,1,.87-.88h4a.88.88,0,0,1,.88.88V33a.88.88,0,0,1-.88.88Z" fill="#93278f"/><path d="M144.59,11.34a3.15,3.15,0,1,1,3.15-3.15A3.16,3.16,0,0,1,144.59,11.34Z" fill="#93278f"/><path d="M74.26,34.62a9.21,9.21,0,0,1-5-1.34,6.83,6.83,0,0,1-2.88-4,3.06,3.06,0,0,1-.07-.37.86.86,0,0,1,.21-.67.89.89,0,0,1,.66-.3h4.32a.87.87,0,0,1,.81.55s0,.07,0,.11a1.71,1.71,0,0,0,.76.85,2.37,2.37,0,0,0,1.2.29,2.57,2.57,0,0,0,1-.2,1.74,1.74,0,0,0,.76-.6,1.09,1.09,0,0,0,.18-.61,1.37,1.37,0,0,0-.25-.82,2.1,2.1,0,0,0-.63-.58,6.22,6.22,0,0,0-1.33-.61l-.36-.14c-.83-.27-1.68-.56-2.54-.88A10.59,10.59,0,0,1,68.63,24,5.23,5.23,0,0,1,66.84,22a4.43,4.43,0,0,1-.41-1.89,6,6,0,0,1,2.41-4.84,9.19,9.19,0,0,1,10-.47,6.25,6.25,0,0,1,2.7,3.82,2.61,2.61,0,0,1,.06.27.83.83,0,0,1-.17.73.86.86,0,0,1-.68.33H76.51a.86.86,0,0,1-.82-.59l0-.07a1.12,1.12,0,0,0-.6-.63,2.32,2.32,0,0,0-1-.19,2,2,0,0,0-.82.17,1.25,1.25,0,0,0-.58.5,1,1,0,0,0-.14.51,1.09,1.09,0,0,0,.18.61,1.6,1.6,0,0,0,.49.48,6.76,6.76,0,0,0,1.74.75l1,.29a17,17,0,0,1,3.71,1.41,5.13,5.13,0,0,1,2.3,2.44,5.62,5.62,0,0,1,.44,2.26,6.32,6.32,0,0,1-.7,2.95,6.26,6.26,0,0,1-1.83,2.12,9.33,9.33,0,0,1-5.55,1.71Z" fill="#93278f"/><circle cx="74.33" cy="39.81" r="3.15" fill="#93278f"/><path d="M48.79,19.8a3.15,3.15,0,1,1,3.15-3.15A3.15,3.15,0,0,1,48.79,19.8Z" fill="#93278f"/><circle cx="59.16" cy="16.65" r="3.15" fill="#93278f"/><path d="M54,34.62a10.6,10.6,0,0,1-10.33-8.37.9.9,0,0,1,.67-1L48,24.4l.19,0a.87.87,0,0,1,.85.73,5,5,0,0,0,9.9,0,.89.89,0,0,1,.86-.73l.19,0,3.66.81a.88.88,0,0,1,.67,1A10.59,10.59,0,0,1,54,34.62Z" fill="#93278f"/><path d="M114.61,34.62a10.56,10.56,0,0,1-10.55-11,10.57,10.57,0,0,1,10.13-10.13h.41a10.58,10.58,0,0,1,10.56,10.56c0,.31,0,.62,0,.93a.88.88,0,0,1-.88.8H111.73a1.1,1.1,0,0,0-1,.65,1.06,1.06,0,0,0,.19,1.16,5,5,0,0,0,3.69,1.65,4.94,4.94,0,0,0,3-1,.86.86,0,0,1,.52-.18H123a.87.87,0,0,1,.75.44.89.89,0,0,1,0,.89A10.55,10.55,0,0,1,114.61,34.62Zm2.9-12.76a1.1,1.1,0,0,0,1.09-1.1,1.12,1.12,0,0,0-.48-.92,6.39,6.39,0,0,0-7,0,1.12,1.12,0,0,0-.49.93,1.1,1.1,0,0,0,1.09,1.1h5.81Zm0,0Z" fill="#93278f"/></svg>