<svg id="Layer_1" data-name="Layer 1" xmlns="http://www.w3.org/2000/svg" viewBox="0 0 168 48"><g id="_46etHi" data-name="46etHi"><path d="M72.32,19.14c-.06-.82-.08-1.5-.16-2.17-.25-2-.53-4-.8-6.07a.77.77,0,0,0-.26-.47l-4.16,8.82-.3,0c-1.38-2.85-2.75-5.7-4.16-8.65a1.44,1.44,0,0,0-.19.38c-.29,2.19-.6,4.39-.83,6.59-.12,1.11-.06,1.11,1,1.36a.39.39,0,0,1,.28.24h-4c1.34-.2,1.3-1.26,1.44-2.21Q61,11.58,61.83,6.2a1.68,1.68,0,0,1,.35-.78c1.87,3.37,3.36,6.91,5.16,10.54L72.25,5.4l.3,0a10.52,10.52,0,0,1,.25,1.08c.52,3.63,1,7.25,1.54,10.87.16,1.09.43,1.34,1.5,1.54a.88.88,0,0,1,.47.22Z" fill="#fff"/><path d="M148.07,19.19h-3.91c1.32-.15,1.27-1.17,1.41-2.08.53-3.62,1.08-7.24,1.62-10.86,0-.26.13-.51.19-.77l.21-.08c.18.29.39.57.54.87q2.12,4.5,4.22,9l.37.67c1.67-3.62,3.28-7.08,4.88-10.54l.26,0a4.25,4.25,0,0,1,.23.77c.52,3.55,1,7.1,1.53,10.64.25,1.73.26,1.72,1.93,2.14,0,0,.1.07.24.18h-4.18a13,13,0,0,0,0-1.54c-.26-2.1-.54-4.2-.82-6.29a1.85,1.85,0,0,0-.33-.88l-4.14,8.79-.32,0-4.13-8.6-.16,0c-.08.48-.16,1-.23,1.43-.24,1.9-.47,3.81-.72,5.71-.09.68.16,1.05.86,1.1a3,3,0,0,1,.49.1Z" fill="#fff"/><path d="M99.34,40.76c-4.75,0-6.94-3.33-7-6.93s2.05-7.06,7.1-7.06c4.42,0,7,2.49,7,6.77A7,7,0,0,1,99.34,40.76Zm4.76-6.52H104c0-.33,0-.65,0-1a6.5,6.5,0,0,0-2-4.46,4.23,4.23,0,0,0-6.48.76,8.32,8.32,0,0,0,.9,8.72,4.41,4.41,0,0,0,4.39,1.48,3.71,3.71,0,0,0,2.89-3.09C103.91,35.87,104,35.05,104.1,34.24Z" fill="#fff"/><path d="M87.67,5.88H92.6a1.42,1.42,0,0,1,0,.15c-1.14.4-1.17.4-1.2,1.68a25.61,25.61,0,0,0,.18,3.87c.69-.72,1.38-1.43,2.06-2.17S94.92,8,95.54,7.21c.33-.39.65-.82-.15-1.32h4.3c-3,.82-4.44,3.48-6.48,5.4-.07.06-.09.17-.17.32,1.26,1.42,2.51,2.87,3.82,4.27a21.22,21.22,0,0,0,2.45,2.29,12.43,12.43,0,0,0,2.13,1c-2.1.05-4,.4-5.5-1.41-1.26-1.56-2.61-3.07-3.92-4.6a1.55,1.55,0,0,0-.64-.5v2.2c0,.89,0,1.79,0,2.69s.18,1.17,1.19,1.33a.58.58,0,0,1,.39.25H87.91l0-.11a1,1,0,0,1,.29-.11c.81,0,1-.52,1-1.18,0-1,.07-2.05.07-3.07,0-2.41,0-4.83,0-7.24,0-1.08-.12-1.21-1.22-1.34a2.21,2.21,0,0,1-.35-.08Z" fill="#fff"/><path d="M86.15,27.1h4.22l.06.2a4.39,4.39,0,0,0-2.85,1.42c-.93.93-1.87,1.86-2.78,2.82-1.14,1.2-1.14,1.22,0,2.48.92,1,1.83,2.11,2.79,3.12,1.26,1.32,2.44,2.78,4.39,3.2-2,.18-3.88.5-5.33-1.3-1.22-1.51-2.51-3-3.77-4.44l-.67-.77c0,1.92,0,3.74,0,5.56,0,.26.42.54.7.72s.5.12.73.31h-5c0-.07,0-.15,0-.15.91,0,1.21-.58,1.22-1.42,0-3.34.07-6.68.06-10,0-1.27-.1-1.3-1.35-1.49a.37.37,0,0,1-.26-.23h5c0,.06,0,.13,0,.14-1.19.28-1.23.34-1.24,1.78,0,1.24,0,2.48,0,3.72l.19.14,1-1.12c1-1.1,2-2.18,2.94-3.28C86.57,28.09,86.85,27.64,86.15,27.1Z" fill="#fff"/><path d="M125.06,5.88a1.91,1.91,0,0,1,.33-.06c1.65,0,3.29,0,4.93,0a3.13,3.13,0,0,1,2.49,1,3,3,0,0,1-.16,3.77,6.87,6.87,0,0,1-1,.72l.15.26c.23.12.46.23.69.36a3.8,3.8,0,0,1-1.46,7.3c-1.16.09-2.34,0-3.51,0a11.08,11.08,0,0,1-2.28-.16,1.23,1.23,0,0,1,.37-.12c.69,0,.89-.47.93-1,0-1,.09-1.94.09-2.91,0-2.49,0-5,0-7.48,0-1.21,0-1.24-1.31-1.4A1,1,0,0,1,125,6Zm7.75,10.28a14.64,14.64,0,0,0-.48-1.87,3.11,3.11,0,0,0-3-2c-.21,0-.59.28-.59.43,0,1.57,0,3.14,0,4.7a1.21,1.21,0,0,0,.62.9C131.14,18.92,132.75,18.17,132.81,16.16ZM128.72,9h0c0,.65,0,1.29,0,1.93a.72.72,0,0,0,.36.55,1.86,1.86,0,0,0,2.38-1.3,3.43,3.43,0,0,0-.39-2.72,2,2,0,0,0-1.6-1c-.5,0-.81.12-.79.71S128.72,8.41,128.72,9Z" fill="#fff"/><path d="M119.15,40.23c1.32.08,1.41-.75,1.41-1.62q0-5,0-10.09a1,1,0,0,0-1.06-1.16,3.38,3.38,0,0,1-.54-.09v-.19h8.14l-.23,2.41a1.55,1.55,0,0,1-.24-.1c-.34-1.23-.34-1.24-1.66-1.35-.42,0-.85,0-1.27-.07-.73-.08-1,.17-1,1,.07,1.07,0,2.14,0,3.21,0,.57.2.77.74.72,1.07-.1,2.19.25,3.35-.51l-.24,2.84c-.11-.06-.2-.08-.21-.12-.34-1.16-.45-1.25-1.62-1.3-2-.08-2-.08-2,1.9,0,.77,0,1.54,0,2.32,0,1.18.37,1.53,1.57,1.6h.37c1.26,0,2.48,0,2.61-1.83a3.53,3.53,0,0,1-.11,2.59.75.75,0,0,1-.47.19h-7.44Z" fill="#fff"/><path d="M114,5.8h8.12l-.21,2.36-.21,0c-.16-1.28-1.09-1.36-2.09-1.37-1.88,0-1.88,0-1.88,1.87,0,.79,0,1.59,0,2.39,0,.22.28.6.44.61.91,0,1.83,0,2.75-.1a3.68,3.68,0,0,0,.91-.35l-.22,2.74c-.12,0-.19,0-.2-.06-.44-1.27-.5-1.32-1.9-1.33-1.79,0-1.79,0-1.79,1.8,0,.85,0,1.69,0,2.54,0,1,.39,1.38,1.41,1.45a9.61,9.61,0,0,0,1.2,0c1.25-.05,1.49-.24,1.91-1.46a.78.78,0,0,1,.16-.21l.22,0c-.11.76-.19,1.53-.36,2.27,0,.15-.4.31-.61.31-2.44,0-4.87,0-7.31-.05,0,0-.07-.06-.11-.09s0-.11,0-.12c1-.19,1.19-.06,1.22-1.57,0-3.31,0-6.62,0-9.93,0-1.15-.14-1.26-1.26-1.41A2,2,0,0,1,114,6Z" fill="#fff"/><path d="M77.67,5.84h8.15l-.24,2.37-.28.13c0-1-.39-1.5-1.28-1.53-.74,0-1.49-.06-2.23,0-.12,0-.33.3-.33.47,0,1.29,0,2.59,0,3.88,0,.18.25.5.39.5.91,0,1.83,0,2.75-.11a3.91,3.91,0,0,0,.93-.36l-.24,2.75-.2.15c0-1.76-1.25-1.53-2.3-1.53-1.56,0-1.33-.16-1.35,1.35,0,1,0,2,0,3s.35,1.37,1.39,1.46c.42,0,.85,0,1.27,0A1.63,1.63,0,0,0,86,16.89a.5.5,0,0,1,.1-.19s0,0,.3-.15c-.14.92-.24,1.7-.41,2.47,0,.13-.36.27-.56.27-2.48,0-5,0-7.45,0,0-.16,0-.24,0-.25,1.23-.47,1.26-.47,1.28-1.84,0-3.19.06-6.37,0-9.56,0-1.18-.19-1.55-1.3-1.52A1,1,0,0,1,77.66,6Z" fill="#fff"/><path d="M100.87,8.06l.43-2.35h11.18V8.26l-.22,0c-.13-1-.87-1.3-1.75-1.36-.64,0-1.29,0-1.94-.07-.44,0-.64.14-.63.59,0,3.36,0,6.72,0,10.08,0,1.15.2,1.49,1.38,1.48.11,0,.22.07.32.24h-5.27l0-.13a.94.94,0,0,1,.31-.1c.76,0,1-.45,1-1.12,0-1.86.06-3.73.08-5.6,0-1.59,0-3.18,0-4.78,0-.53-.19-.7-.7-.66s-1.19.06-1.79.07c-1,0-1.87.1-2.14,1.35Z" fill="#fff"/><path d="M108.21,27.09h5.12l0,.13a1.59,1.59,0,0,1-.41.12c-.79,0-1.1.42-1.1,1.19,0,3,0,6,0,9,0,.14,0,.29,0,.44.09,1.15.38,1.44,1.51,1.51h.53c1.34,0,2.7.13,2.9-1.86l.3.2a20.2,20.2,0,0,1-.39,2.35c0,.18-.59.31-.9.31-2,0-4,0-6.06-.07a6.23,6.23,0,0,1-1.47-.13c.07,0,.14-.1.21-.1.75,0,1.06-.44,1.06-1.16q.06-4.82.11-9.63a.75.75,0,0,0,0-.15C109.64,27.69,109.64,27.69,108.21,27.09Z" fill="#fff"/><path d="M128.94,44.86c.11-.09.21-.19.33-.27a4.21,4.21,0,0,0,1.94-3.52c.06-3.18.07-6.37.09-9.55,0-.87,0-1.75,0-2.62,0-1.24-.13-1.41-1.34-1.56a.32.32,0,0,1-.26-.21h5.11c0,.05,0,.13,0,.13-1.26.38-1.3.45-1.29,1.81,0,3.18,0,6.37,0,9.55a6.6,6.6,0,0,1-3.7,6.11,4.56,4.56,0,0,1-.55.24,1.18,1.18,0,0,1-.27,0Z" fill="#fff"/><path d="M136.81,27.1h4.9c-.05.12-.07.19-.09.2-1.17.28-1.22.28-1.23,1.45,0,3.36,0,6.72,0,10.09,0,1,.25,1.2,1.21,1.35a.82.82,0,0,1,.52.23h-5.25l0-.11a2.26,2.26,0,0,1,.37-.11.93.93,0,0,0,.91-1.05c0-1.37.11-2.74.11-4.11,0-2,0-4.08-.08-6.12C138.13,27.6,138.09,27.6,136.81,27.1Z" fill="#fff"/><path d="M137,5.87h4.85c-.07.1-.1.19-.14.21-1.19.36-1.19.37-1.19,1.64,0,3.13,0,6.27,0,9.4,0,.25.05.5.05.75a1,1,0,0,0,1.07,1.05.93.93,0,0,1,.64.24h-5.33c1.36-.67,1.37-.67,1.38-2.3q0-4.29.07-8.59c0-.34-.06-.69-.06-1,0-.72-.33-1.12-1.09-1.1-.09,0-.17-.07-.26-.11Z" fill="#fff"/><path d="M140.48,3.62a1.16,1.16,0,0,1-1,1.16,1.05,1.05,0,0,1-1.06-1,1.07,1.07,0,0,1,1-1.14A1,1,0,0,1,140.48,3.62Z" fill="#fff"/><path d="M139.25,26a1,1,0,0,1-1-1.05,1.05,1.05,0,0,1,1-1.11,1,1,0,0,1,1,1A1.11,1.11,0,0,1,139.25,26Z" fill="#fff"/></g><path d="M40.81,30.33c.14.71.32,1.4.4,2.11a6.66,6.66,0,0,1-1.12,5.1,5.74,5.74,0,0,1-6.73,1.86,8.65,8.65,0,0,1-2.92-2.09c-.18-.19-.35-.39-.52-.58-.58.46-1.09.89-1.63,1.28a9.49,9.49,0,0,1-4.57,1.92,5.39,5.39,0,0,1-4.41-1.47c-2.2-2-2.6-4.39-1.67-7.11.06-.16.12-.32.18-.5-.64-.19-1.26-.34-1.86-.55a8.47,8.47,0,0,1-3.22-2,5.78,5.78,0,0,1,.88-8.5,10.13,10.13,0,0,1,4.18-1.66l.47-.1a6.87,6.87,0,0,1-.9-4.15,6.4,6.4,0,0,1,4.45-6.15,5.84,5.84,0,0,1,6.06,1.4c.38.34.78.66,1.17,1l0,.25a2.8,2.8,0,0,1,.31-.5,8.57,8.57,0,0,1,3.9-2.7,5.62,5.62,0,0,1,7.1,4.57,10,10,0,0,1-.56,4.89c0,.11-.07.22-.1.33s0,.06,0,.14a4.91,4.91,0,0,1,.53,0c2.73.44,5,1.62,6.22,4.22A6.09,6.09,0,0,1,42.41,30C41.89,30.11,41.35,30.21,40.81,30.33ZM23.52,20.17a23.4,23.4,0,0,1,.26,3c-.07,1.34-.31,2.68-.49,4,0,.23-.1.41.23.49A13.19,13.19,0,0,1,28.27,30c.54.39,1.07.79,1.65,1.23,1.16-2.8,3.51-3.85,6.24-4.38-.13-.45-.26-.82-.35-1.19a16.42,16.42,0,0,1-.4-5c0-.33-.08-.39-.4-.42A10,10,0,0,1,33.12,20,9.44,9.44,0,0,1,29,16.9l-.39-.43A15.78,15.78,0,0,1,23.52,20.17Zm-1.41.63-.67.23c-.82.26-1.63.54-2.45.79a8,8,0,0,0-3.24,1.63,3.38,3.38,0,0,0-1.1,3.74,4,4,0,0,0,3.09,2.89.51.51,0,0,0,.64-.29,12.85,12.85,0,0,1,.68-1.12,20.49,20.49,0,0,0,2.48-5.27C21.77,22.59,21.91,21.75,22.11,20.8ZM19.22,18c1.94-.4,3.85-.78,5.74-1.21a6.12,6.12,0,0,0,2.45-1.11c.22-.18.34-.35.1-.61-.66-.73-1.28-1.51-2-2.2a4.35,4.35,0,0,0-4.8-1.17,2.8,2.8,0,0,0-1.88,1.86A6.86,6.86,0,0,0,19.22,18Zm3.61,11.24c-.22.7-.47,1.36-.64,2.05a7.94,7.94,0,0,0-.14,4.35A3.21,3.21,0,0,0,26,38a6.49,6.49,0,0,0,3.1-2c.07-.07,0-.33,0-.44-.34-.5-.69-1-1.08-1.47-1.06-1.29-2.12-2.59-3.23-3.84A3.23,3.23,0,0,0,22.83,29.23ZM44,21.77a2.8,2.8,0,0,0-.89-2.15,6.34,6.34,0,0,0-3.54-1.53c-.1,0-.31.15-.34.28C38.63,20.18,38,22,37.56,23.83a10.53,10.53,0,0,0-.13,2.32c0,.22,0,.5.41.42,1-.22,2-.39,3-.69A4.16,4.16,0,0,0,44,21.77Zm-8.42-3.05c.28-1.46.58-2.78.76-4.11a8.48,8.48,0,0,0,0-2.25,3.33,3.33,0,0,0-2.52-3,3.93,3.93,0,0,0-4.11,1.23.46.46,0,0,0,0,.69c.23.31.41.66.62,1a29.92,29.92,0,0,0,4.3,5.59C34.84,18.13,35.17,18.39,35.55,18.72ZM31.13,32.15c.73.78,1.36,1.57,2.1,2.23a7.14,7.14,0,0,0,1.83,1.17,3.4,3.4,0,0,0,4-.67,4,4,0,0,0,1-4.19.39.39,0,0,0-.48-.3c-.66.09-1.33.12-2,.2a24,24,0,0,0-5.74,1.21A5.59,5.59,0,0,0,31.13,32.15Z" fill="#ba0018"/><path d="M41.16,43a2,2,0,1,1,2-2A2,2,0,0,1,41.16,43Z" fill="#ba0018"/><path d="M10.2,23.89a2,2,0,0,1-2,2,2,2,0,1,1,0-4A2,2,0,0,1,10.2,23.89Z" fill="#ba0018"/><path d="M43.37,7.09a2,2,0,0,1-2,2,2,2,0,0,1-2-2,2,2,0,0,1,2-2A2,2,0,0,1,43.37,7.09Z" fill="#ba0018"/><path d="M52.4,23.78a2,2,0,0,1-2,2,2.08,2.08,0,0,1-2-2.05,2,2,0,0,1,2.06-2A2,2,0,0,1,52.4,23.78Z" fill="#ba0018"/><path d="M17.22,42.85a2,2,0,1,1,2-2A2,2,0,0,1,17.22,42.85Z" fill="#ba0018"/><path d="M16.3,5.74a2,2,0,0,1,4,0,2,2,0,1,1-4,0Z" fill="#ba0018"/></svg>