<svg id="Layer_1" data-name="Layer 1" xmlns="http://www.w3.org/2000/svg" viewBox="0 0 168 48"><path d="M69.74,42.24a.86.86,0,0,1-.81-1.2L72,33.45a.84.84,0,0,0,.07-.35,1,1,0,0,0-.06-.34L65.27,15.42a.9.9,0,0,1,.09-.81.87.87,0,0,1,.72-.38h4.55a.87.87,0,0,1,.83.59l3.74,10.9,3.59-10.89a.86.86,0,0,1,.82-.6h4.52a.85.85,0,0,1,.72.38.82.82,0,0,1,.1.8L75.11,41.68a.9.9,0,0,1-.82.56H69.74Z" fill="#ff0"/><path d="M12.71,34.62a10.56,10.56,0,0,1-10.55-11,10.62,10.62,0,0,1,10-10.13l.56,0a10.46,10.46,0,0,1,4.69,1.1l.15.08v-8a.87.87,0,0,1,.88-.87h4a.87.87,0,0,1,.88.87V24.43A10.52,10.52,0,0,1,12.71,34.62Zm0-15.77a5.22,5.22,0,1,0,5.22,5.22A5.22,5.22,0,0,0,12.71,18.85Z" fill="#ff0"/><path d="M110.9,33.87A.87.87,0,0,1,110,33V23a8.81,8.81,0,0,1,8.8-8.8H120a.87.87,0,0,1,.87.88V19a.87.87,0,0,1-.87.88H119a3.3,3.3,0,0,0-3.29,3.29V33a.89.89,0,0,1-.88.88h-4Z" fill="#ff0"/><path d="M124.5,33.87a.87.87,0,0,1-.88-.88V15.1a.87.87,0,0,1,.88-.88h4a.87.87,0,0,1,.88.88V33a.87.87,0,0,1-.88.88Z" fill="#ff0"/><path d="M126.48,11.34a3.15,3.15,0,1,1,3.15-3.15A3.15,3.15,0,0,1,126.48,11.34Z" fill="#ff0"/><path d="M56.15,34.62a9.21,9.21,0,0,1-5-1.34,6.78,6.78,0,0,1-2.87-4,1.85,1.85,0,0,1-.08-.37.86.86,0,0,1,.21-.67.89.89,0,0,1,.66-.3h4.32a.87.87,0,0,1,.81.55.54.54,0,0,0,.05.11,1.69,1.69,0,0,0,.75.85,2.37,2.37,0,0,0,1.2.29,2.57,2.57,0,0,0,1-.2,1.69,1.69,0,0,0,.76-.6,1.09,1.09,0,0,0,.18-.61,1.44,1.44,0,0,0-.24-.82,2.38,2.38,0,0,0-.63-.58,6.53,6.53,0,0,0-1.34-.61l-.36-.14c-.83-.27-1.68-.56-2.54-.88A10.59,10.59,0,0,1,50.52,24,5.23,5.23,0,0,1,48.73,22a4.43,4.43,0,0,1-.41-1.89,6,6,0,0,1,2.41-4.84,9.19,9.19,0,0,1,10-.47,6.21,6.21,0,0,1,2.7,3.82c0,.09.05.18.07.27a.86.86,0,0,1-.18.73.85.85,0,0,1-.68.33H58.4a.86.86,0,0,1-.82-.59l0-.07a1.14,1.14,0,0,0-.59-.63,2.4,2.4,0,0,0-1-.19,2,2,0,0,0-.81.17,1.28,1.28,0,0,0-.59.5,1,1,0,0,0-.13.51,1.08,1.08,0,0,0,.17.61,1.73,1.73,0,0,0,.49.48,6.76,6.76,0,0,0,1.74.75l1,.29a16.81,16.81,0,0,1,3.71,1.41,5.13,5.13,0,0,1,2.3,2.44,5.62,5.62,0,0,1,.44,2.26,6.32,6.32,0,0,1-.7,2.95,6.15,6.15,0,0,1-1.83,2.12,9.33,9.33,0,0,1-5.55,1.71Z" fill="#ff0"/><circle cx="56.22" cy="39.81" r="3.15" fill="#ff0"/><path d="M30.69,19.8a3.15,3.15,0,1,1,3.15-3.15A3.15,3.15,0,0,1,30.69,19.8Z" fill="#ff0"/><circle cx="41.05" cy="16.65" r="3.15" fill="#ff0"/><path d="M35.86,34.62a10.61,10.61,0,0,1-10.33-8.37.9.9,0,0,1,.68-1l3.66-.81.19,0a.89.89,0,0,1,.86.73,5,5,0,0,0,9.89,0,.89.89,0,0,1,.86-.73l.19,0,3.66.81a.88.88,0,0,1,.67,1A10.59,10.59,0,0,1,35.86,34.62Z" fill="#ff0"/><path d="M96.5,34.62A10.56,10.56,0,0,1,86,23.65,10.58,10.58,0,0,1,96.08,13.52h.41a10.57,10.57,0,0,1,10.56,10.56c0,.31,0,.62,0,.93a.88.88,0,0,1-.87.8H93.62a1.08,1.08,0,0,0-1,.65,1.05,1.05,0,0,0,.18,1.16,5,5,0,0,0,3.69,1.65,4.92,4.92,0,0,0,3-1A.88.88,0,0,1,100,28h4.83a.85.85,0,0,1,.75.44.86.86,0,0,1,0,.89A10.55,10.55,0,0,1,96.5,34.62Zm2.9-12.76a1.1,1.1,0,0,0,1.09-1.1,1.12,1.12,0,0,0-.48-.92,6.39,6.39,0,0,0-7,0,1.12,1.12,0,0,0-.49.93,1.1,1.1,0,0,0,1.09,1.1H99.4Zm0,0Z" fill="#ff0"/><path d="M138,16.86h-4.56a.53.53,0,0,1-.53-.53V14.76a.53.53,0,0,1,.53-.53h12.05a.53.53,0,0,1,.53.53v1.57a.53.53,0,0,1-.53.53H140.9V33.31a.55.55,0,0,1-.53.53h-1.85a.55.55,0,0,1-.53-.53V16.86Z" fill="#ff0"/><path d="M147.42,15a.5.5,0,0,1,.48-.73h2a.57.57,0,0,1,.48.31l6.16,13.87h.14l6.2-13.87a.5.5,0,0,1,.47-.31h2a.5.5,0,0,1,.47.73L157.2,33.82a.52.52,0,0,1-.47.31h-.28a.55.55,0,0,1-.47-.31Z" fill="#ff0"/></svg>