<svg id="Layer_1" data-name="Layer 1" xmlns="http://www.w3.org/2000/svg" viewBox="0 0 168 48"><g id="_46etHi" data-name="46etHi"><path d="M71.51,19c-.06-.88-.09-1.61-.18-2.34-.27-2.19-.57-4.37-.86-6.55a.85.85,0,0,0-.27-.51Q68,14.33,65.71,19.09l-.33,0L60.89,9.78a1.62,1.62,0,0,0-.2.41c-.31,2.37-.64,4.73-.9,7.11-.12,1.19-.06,1.2,1.11,1.46a.44.44,0,0,1,.31.27H56.92c1.45-.23,1.41-1.37,1.56-2.39Q59.32,10.82,60.19,5a1.84,1.84,0,0,1,.38-.84c2,3.64,3.62,7.45,5.57,11.37C68,11.62,69.7,7.89,71.43,4.15l.33,0c.09.39.21.78.27,1.17.56,3.91,1.1,7.82,1.66,11.72.17,1.18.46,1.45,1.61,1.66a.92.92,0,0,1,.51.24Z" fill="#fff"/><path d="M153.2,19H149c1.41-.16,1.37-1.26,1.51-2.24q.87-5.87,1.75-11.71c.05-.28.14-.56.21-.83l.22-.09a10.48,10.48,0,0,1,.59.94q2.28,4.85,4.55,9.7c.08.17.18.33.39.72,1.81-3.89,3.54-7.63,5.27-11.36l.28,0A5.24,5.24,0,0,1,164,5c.56,3.83,1.1,7.66,1.65,11.48.27,1.86.28,1.86,2.08,2.3.06,0,.11.08.26.2h-4.51a15,15,0,0,0,0-1.66q-.42-3.39-.89-6.79a2,2,0,0,0-.35-.95l-4.47,9.48-.34,0Q155.2,14.47,153,9.82l-.17,0c-.08.52-.17,1-.24,1.55-.26,2-.51,4.1-.78,6.15-.1.74.17,1.14.92,1.19a3.12,3.12,0,0,1,.53.11Z" fill="#fff"/><path d="M100.64,42.29c-5.11,0-7.48-3.59-7.5-7.48s2.21-7.61,7.66-7.62c4.76,0,7.54,2.69,7.53,7.31A7.52,7.52,0,0,1,100.64,42.29Zm5.14-7h-.11c0-.35,0-.7,0-1.05a7,7,0,0,0-2.13-4.81,4.56,4.56,0,0,0-7,.82,9,9,0,0,0,1,9.41,4.72,4.72,0,0,0,4.72,1.59,4,4,0,0,0,3.12-3.33C105.58,37,105.65,36.13,105.78,35.25Z" fill="#fff"/><path d="M88.06,4.67h5.32c0,.07,0,.16,0,.16-1.23.44-1.25.44-1.28,1.81a26,26,0,0,0,.19,4.18C93,10,93.76,9.27,94.49,8.47s1.39-1.56,2.06-2.36c.35-.43.7-.89-.16-1.43H101c-3.24.88-4.79,3.76-7,5.82a1.21,1.21,0,0,0-.19.35c1.37,1.53,2.72,3.1,4.12,4.6a23.62,23.62,0,0,0,2.64,2.47,13.81,13.81,0,0,0,2.31,1.14c-2.27.05-4.36.43-5.94-1.52-1.36-1.69-2.81-3.31-4.22-5a1.69,1.69,0,0,0-.7-.54V14.4c0,1,0,1.94,0,2.9,0,1.13.19,1.27,1.28,1.45a.58.58,0,0,1,.42.26H88.33l0-.12a1,1,0,0,1,.32-.11c.87,0,1.07-.57,1.09-1.28,0-1.1.08-2.2.08-3.3,0-2.61,0-5.21-.05-7.82,0-1.16-.13-1.3-1.31-1.44a2.62,2.62,0,0,1-.38-.09Z" fill="#fff"/><path d="M86.42,27.56H91l.07.21A4.75,4.75,0,0,0,88,29.3c-1,1-2,2-3,3-1.24,1.3-1.23,1.32,0,2.68,1,1.13,2,2.27,3,3.36,1.35,1.43,2.62,3,4.72,3.46-2.09.19-4.18.53-5.74-1.41-1.32-1.63-2.71-3.19-4.07-4.79l-.72-.83c0,2.07,0,4,0,6,0,.27.46.58.76.78s.53.13.78.33H78.34a.52.52,0,0,1,0-.16c1,0,1.31-.62,1.31-1.54,0-3.6.08-7.19.07-10.79,0-1.37-.11-1.4-1.46-1.61a.39.39,0,0,1-.28-.24h5.4c0,.06,0,.14,0,.15-1.28.3-1.32.36-1.34,1.92,0,1.33,0,2.67,0,4l.21.16c.35-.41.71-.81,1.07-1.21,1.05-1.18,2.12-2.35,3.17-3.54C86.88,28.62,87.18,28.14,86.42,27.56Z" fill="#fff"/><path d="M128.38,4.67a2.25,2.25,0,0,1,.36-.06c1.78,0,3.55,0,5.32,0a3.33,3.33,0,0,1,2.68,1.08,3.18,3.18,0,0,1-.17,4.08,6.18,6.18,0,0,1-1,.76l.16.29.75.38a4.18,4.18,0,0,1,2.43,4.49,4.21,4.21,0,0,1-4,3.39c-1.25.1-2.52,0-3.78,0a12,12,0,0,1-2.46-.18,1.46,1.46,0,0,1,.39-.12c.74,0,1-.51,1-1.12.06-1,.1-2.09.1-3.14,0-2.69,0-5.37-.05-8.06,0-1.31,0-1.33-1.41-1.51a1.72,1.72,0,0,1-.29-.11Zm8.37,11.08a19.1,19.1,0,0,0-.52-2A3.37,3.37,0,0,0,133,11.55c-.23,0-.63.3-.63.46,0,1.69,0,3.39,0,5.08a1.31,1.31,0,0,0,.67,1C134.94,18.73,136.68,17.92,136.75,15.75ZM132.33,8h0c0,.7,0,1.4,0,2.09a.77.77,0,0,0,.38.59,2,2,0,0,0,2.58-1.4,3.75,3.75,0,0,0-.43-2.94,2.11,2.11,0,0,0-1.73-1c-.54,0-.87.13-.84.76S132.33,7.39,132.33,8Z" fill="#fff"/><path d="M122,41.72c1.43.08,1.52-.81,1.52-1.76,0-3.62,0-7.25,0-10.87a1.07,1.07,0,0,0-1.14-1.25,4.21,4.21,0,0,1-.58-.11v-.2h8.78l-.25,2.6c-.17-.07-.25-.08-.25-.11-.38-1.33-.38-1.33-1.8-1.45-.45,0-.91,0-1.36-.07-.79-.1-1.11.17-1.06,1,.07,1.15,0,2.31,0,3.46,0,.61.21.83.8.78,1.15-.11,2.36.27,3.61-.56l-.26,3.07c-.12-.07-.21-.09-.23-.13-.37-1.25-.48-1.35-1.75-1.4-2.16-.09-2.16-.09-2.16,2,0,.83,0,1.66,0,2.49,0,1.28.4,1.66,1.69,1.74h.4c1.36,0,2.68,0,2.81-2a3.76,3.76,0,0,1-.11,2.79.92.92,0,0,1-.51.21c-2.68,0-5.35,0-8,0Z" fill="#fff"/><path d="M116.47,4.58h8.76L125,7.13l-.22,0c-.18-1.37-1.19-1.47-2.26-1.47-2,0-2,0-2,2,0,.86,0,1.72,0,2.58,0,.24.3.65.46.66a29.37,29.37,0,0,0,3-.11,3.88,3.88,0,0,0,1-.38l-.24,3c-.12,0-.2,0-.21-.07-.47-1.37-.54-1.42-2-1.43-1.94,0-1.94,0-1.94,1.94,0,.92,0,1.83,0,2.74,0,1.1.43,1.49,1.52,1.57a11.11,11.11,0,0,0,1.29,0c1.36-.06,1.62-.27,2.06-1.57,0-.09.12-.16.17-.24l.25.05c-.12.82-.21,1.65-.39,2.45,0,.15-.43.33-.66.33-2.63,0-5.26,0-7.89-.06,0,0-.07-.05-.11-.09s0-.12,0-.13c1-.2,1.29-.06,1.31-1.69.06-3.57.06-7.14.06-10.71,0-1.24-.15-1.36-1.36-1.52a2,2,0,0,1-.34-.12Z" fill="#fff"/><path d="M77.28,4.63h8.79L85.8,7.18l-.29.14c0-1.05-.42-1.62-1.38-1.65-.81,0-1.61-.06-2.41,0-.13,0-.35.33-.36.5,0,1.4,0,2.8,0,4.19,0,.19.27.54.42.54q1.48,0,3-.12a4,4,0,0,0,1-.39l-.26,3-.21.16c0-1.9-1.35-1.65-2.48-1.65-1.68,0-1.43-.17-1.46,1.46,0,1.07,0,2.15,0,3.22s.37,1.48,1.5,1.58c.45,0,.91,0,1.36,0a1.75,1.75,0,0,0,2-1.57.82.82,0,0,1,.12-.2s0,0,.32-.16c-.16,1-.26,1.83-.44,2.66,0,.14-.39.29-.6.29-2.68,0-5.35,0-8,0,0-.18,0-.27,0-.28,1.33-.5,1.36-.5,1.38-2C79,13.45,79,10,79,6.58c0-1.28-.21-1.67-1.41-1.65a.86.86,0,0,1-.33-.11Z" fill="#fff"/><path d="M102.29,7l.48-2.53h12V7.23l-.24,0c-.14-1.12-.94-1.4-1.88-1.46-.7,0-1.4,0-2.09-.08-.48,0-.69.15-.69.64,0,3.62,0,7.25,0,10.87,0,1.24.21,1.6,1.48,1.6a.42.42,0,0,1,.35.25h-5.69l0-.14a1.22,1.22,0,0,1,.34-.11c.81,0,1.06-.48,1.07-1.2,0-2,.06-4,.08-6,0-1.72,0-3.43,0-5.15,0-.58-.2-.77-.75-.72s-1.29.07-1.93.07c-1,0-2,.11-2.31,1.46Z" fill="#fff"/><path d="M110.22,27.54h5.52l0,.14a1.56,1.56,0,0,1-.45.14c-.85,0-1.18.45-1.18,1.27,0,3.25,0,6.5,0,9.75,0,.16,0,.32,0,.48.1,1.24.41,1.55,1.63,1.63h.57c1.44,0,2.91.14,3.13-2l.32.22a19.35,19.35,0,0,1-.42,2.53c-.05.2-.63.34-1,.34-2.18,0-4.35,0-6.53-.08a7.26,7.26,0,0,1-1.59-.13c.08,0,.15-.12.23-.12.81,0,1.14-.47,1.15-1.24q0-5.2.11-10.39a1,1,0,0,0,0-.17C111.75,28.19,111.75,28.19,110.22,27.54Z" fill="#fff"/><path d="M132.57,46.7c.12-.09.23-.2.35-.28a4.56,4.56,0,0,0,2.1-3.8c.06-3.43.07-6.87.1-10.3,0-.94,0-1.88,0-2.82,0-1.34-.14-1.52-1.45-1.68a.37.37,0,0,1-.28-.24h5.51c0,.06,0,.14,0,.15-1.36.41-1.4.49-1.4,1.94,0,3.44,0,6.87,0,10.31a7.09,7.09,0,0,1-4,6.58,3.42,3.42,0,0,1-.59.26,1,1,0,0,1-.3,0Z" fill="#fff"/><path d="M141.06,27.55h5.29c-.07.13-.08.21-.11.22-1.26.3-1.31.3-1.32,1.56,0,3.63,0,7.26,0,10.88,0,1.07.26,1.3,1.3,1.46a.91.91,0,0,1,.57.25h-5.67l0-.12a1.82,1.82,0,0,1,.4-.11,1,1,0,0,0,1-1.14c0-1.48.12-2.95.12-4.43,0-2.2,0-4.4-.08-6.61C142.48,28.09,142.44,28.09,141.06,27.55Z" fill="#fff"/><path d="M141.27,4.65h5.22c-.07.12-.1.21-.15.23-1.28.39-1.28.41-1.28,1.77,0,3.38,0,6.76,0,10.15,0,.26,0,.53.06.8a1,1,0,0,0,1.15,1.13A1,1,0,0,1,147,19H141.2c1.46-.72,1.47-.72,1.49-2.48,0-3.09.05-6.17.07-9.26,0-.37-.06-.75-.07-1.12,0-.79-.35-1.21-1.17-1.19-.09,0-.18-.08-.28-.12Z" fill="#fff"/><path d="M145,2.23a1.24,1.24,0,0,1-1.12,1.25,1.13,1.13,0,0,1-1.14-1.11,1.16,1.16,0,0,1,1.11-1.23A1.11,1.11,0,0,1,145,2.23Z" fill="#fff"/><path d="M143.7,26.37a1.07,1.07,0,0,1-1.1-1.13,1.14,1.14,0,0,1,1.13-1.2,1.09,1.09,0,0,1,1.11,1.12A1.18,1.18,0,0,1,143.7,26.37Z" fill="#fff"/></g><path d="M42.66,32.45c.17.88.39,1.73.5,2.59a8.19,8.19,0,0,1-1.38,6.26,7,7,0,0,1-8.25,2.28A10.4,10.4,0,0,1,29.94,41c-.22-.23-.43-.47-.64-.72-.71.57-1.34,1.09-2,1.58a11.65,11.65,0,0,1-5.6,2.36,6.67,6.67,0,0,1-5.41-1.8c-2.7-2.43-3.19-5.4-2-8.73.06-.2.14-.4.21-.62-.78-.23-1.54-.41-2.28-.68a10.37,10.37,0,0,1-3.95-2.48A7.1,7.1,0,0,1,9.31,19.49a12.38,12.38,0,0,1,5.13-2l.56-.12a8.52,8.52,0,0,1-1.1-5.1A7.84,7.84,0,0,1,19.37,4.7,7.16,7.16,0,0,1,26.8,6.42c.47.41,1,.8,1.44,1.21l0,.31a4,4,0,0,1,.38-.62A10.45,10.45,0,0,1,33.44,4a6.88,6.88,0,0,1,8.71,5.6,12.26,12.26,0,0,1-.69,6c0,.14-.09.27-.12.41a.55.55,0,0,0,0,.17,4.82,4.82,0,0,1,.65,0c3.35.54,6.15,2,7.63,5.19a7.46,7.46,0,0,1-5,10.57C44,32.18,43.32,32.3,42.66,32.45ZM21.45,20a27.45,27.45,0,0,1,.31,3.74c-.07,1.65-.38,3.29-.6,4.93,0,.28-.11.51.28.6a16.18,16.18,0,0,1,5.84,2.83c.67.47,1.31,1,2,1.5,1.41-3.43,4.3-4.73,7.65-5.37-.16-.55-.32-1-.43-1.47A20.25,20.25,0,0,1,36,20.63c0-.41-.1-.49-.5-.52a11.29,11.29,0,0,1-2.31-.4,11.3,11.3,0,0,1-5-3.74l-.48-.52A19.18,19.18,0,0,1,21.45,20Zm-1.73.79L18.9,21c-1,.33-2,.67-3,1a10,10,0,0,0-4,2,4.15,4.15,0,0,0-1.35,4.59,5,5,0,0,0,3.8,3.54.61.61,0,0,0,.78-.35A14.77,14.77,0,0,1,16,30.42,25.32,25.32,0,0,0,19,24C19.3,23,19.47,21.92,19.72,20.77Zm-3.55-3.45c2.38-.5,4.72-1,7-1.49a7.38,7.38,0,0,0,3-1.37c.27-.21.42-.42.13-.74-.82-.9-1.58-1.85-2.44-2.7A5.31,5.31,0,0,0,18,9.58a3.45,3.45,0,0,0-2.31,2.28A8.43,8.43,0,0,0,16.17,17.32ZM20.6,31.1c-.27.86-.57,1.68-.79,2.52A9.88,9.88,0,0,0,19.65,39,3.94,3.94,0,0,0,24.5,41.9a7.91,7.91,0,0,0,3.79-2.4c.09-.09.05-.41,0-.54-.42-.62-.85-1.23-1.33-1.81-1.3-1.58-2.6-3.17-4-4.7A3.94,3.94,0,0,0,20.6,31.1ZM46.54,22a3.4,3.4,0,0,0-1.09-2.64,7.72,7.72,0,0,0-4.34-1.88c-.12,0-.38.18-.43.33-.69,2.23-1.42,4.45-2,6.71a12.82,12.82,0,0,0-.16,2.85c0,.26.06.61.5.51,1.21-.27,2.45-.47,3.63-.84A5.13,5.13,0,0,0,46.54,22ZM36.21,18.21c.34-1.79.71-3.41.93-5a9.89,9.89,0,0,0,0-2.77A4.09,4.09,0,0,0,34,6.7a4.81,4.81,0,0,0-5,1.51.56.56,0,0,0-.06.84c.29.38.51.82.77,1.22A37,37,0,0,0,35,17.13C35.34,17.49,35.74,17.8,36.21,18.21ZM30.79,34.69c.89,1,1.66,1.92,2.58,2.74a8.8,8.8,0,0,0,2.23,1.42A4.15,4.15,0,0,0,40.54,38a4.85,4.85,0,0,0,1.21-5.13.46.46,0,0,0-.58-.37c-.81.11-1.63.15-2.45.25a29.71,29.71,0,0,0-7,1.47A8.22,8.22,0,0,0,30.79,34.69Z" fill="#ba0018"/><path d="M43.09,48a2.45,2.45,0,1,1,2.5-2.42A2.47,2.47,0,0,1,43.09,48Z" fill="#ba0018"/><path d="M5.11,24.55A2.46,2.46,0,0,1,2.68,27a2.46,2.46,0,1,1,0-4.92A2.45,2.45,0,0,1,5.11,24.55Z" fill="#ba0018"/><path d="M45.8,3.94A2.46,2.46,0,0,1,43.35,6.4,2.52,2.52,0,0,1,40.91,4a2.5,2.5,0,0,1,2.44-2.48A2.45,2.45,0,0,1,45.8,3.94Z" fill="#ba0018"/><path d="M56.88,24.41a2.46,2.46,0,0,1-2.47,2.45A2.54,2.54,0,0,1,52,24.34a2.49,2.49,0,0,1,2.52-2.4A2.44,2.44,0,0,1,56.88,24.41Z" fill="#ba0018"/><path d="M13.72,47.81a2.45,2.45,0,1,1,2.45-2.46A2.49,2.49,0,0,1,13.72,47.81Z" fill="#ba0018"/><path d="M12.59,2.28a2.46,2.46,0,0,1,4.91,0,2.46,2.46,0,1,1-4.91,0Z" fill="#ba0018"/></svg>